<svg width="32" height="33" viewBox="0 0 32 33" fill="none" xmlns="http://www.w3.org/2000/svg">
<path d="M16 3.5C11.0312 3.5 7 7.33687 7 12.0625C7 17.5 13 26.1169 15.2031 29.0931C15.2946 29.2188 15.4144 29.321 15.5529 29.3915C15.6914 29.462 15.8446 29.4987 16 29.4987C16.1554 29.4987 16.3086 29.462 16.4471 29.3915C16.5856 29.321 16.7054 29.2188 16.7969 29.0931C19 26.1181 25 17.5044 25 12.0625C25 7.33687 20.9688 3.5 16 3.5Z" stroke="#27348B" stroke-width="1.2" stroke-linecap="round" stroke-linejoin="round"/>
<path d="M16 15.5C17.6569 15.5 19 14.1569 19 12.5C19 10.8431 17.6569 9.5 16 9.5C14.3431 9.5 13 10.8431 13 12.5C13 14.1569 14.3431 15.5 16 15.5Z" stroke="#27348B" stroke-width="1.2" stroke-linecap="round" stroke-linejoin="round"/>
</svg>
