<svg width="26" height="26" viewBox="0 0 26 26" fill="none" xmlns="http://www.w3.org/2000/svg">
<path d="M24.0003 25.8333C24.5308 25.8333 25.0395 25.6226 25.4145 25.2475C25.7896 24.8725 26.0003 24.3638 26.0003 23.8333V19.1667C26.0003 18.6362 25.7896 18.1275 25.4145 17.7525C25.0395 17.3774 24.5308 17.1667 24.0003 17.1667C22.4403 17.1667 20.907 16.9267 19.4403 16.4333C19.0897 16.3227 18.7154 16.3101 18.3581 16.3971C18.0009 16.4841 17.6742 16.6672 17.4137 16.9267L15.4937 18.8467C12.1766 17.0366 9.45044 14.3103 7.64033 10.9933L9.54699 9.08667C10.0937 8.56667 10.2937 7.79333 10.0537 7.04667C9.57366 5.59333 9.33366 4.06 9.33366 2.5C9.33366 1.96957 9.12295 1.46086 8.74787 1.08579C8.3728 0.710714 7.86409 0.5 7.33366 0.5H2.66699C2.13656 0.5 1.62785 0.710714 1.25278 1.08579C0.877706 1.46086 0.666992 1.96957 0.666992 2.5C0.666992 15.3667 11.1337 25.8333 24.0003 25.8333ZM2.66699 1.83333H7.33366C7.51047 1.83333 7.68004 1.90357 7.80506 2.0286C7.93009 2.15362 8.00033 2.32319 8.00033 2.5C8.00033 4.20667 8.26699 5.87333 8.78699 7.46C8.85366 7.64667 8.84033 7.91333 8.62699 8.12667L6.00033 10.74C8.20033 15.0467 11.427 18.2733 15.747 20.5L18.347 17.8733C18.5337 17.6867 18.787 17.6333 19.027 17.7C20.627 18.2333 22.2937 18.5 24.0003 18.5C24.1771 18.5 24.3467 18.5702 24.4717 18.6953C24.5968 18.8203 24.667 18.9899 24.667 19.1667V23.8333C24.667 24.0101 24.5968 24.1797 24.4717 24.3047C24.3467 24.4298 24.1771 24.5 24.0003 24.5C11.867 24.5 2.00033 14.6333 2.00033 2.5C2.00033 2.32319 2.07056 2.15362 2.19559 2.0286C2.32061 1.90357 2.49018 1.83333 2.66699 1.83333Z" fill="#27348B"/>
</svg>
