<svg width="28" height="29" viewBox="0 0 28 29" fill="none" xmlns="http://www.w3.org/2000/svg">
<path d="M14.0003 1.16666C6.63633 1.16666 0.666992 7.13599 0.666992 14.5C0.666992 21.864 6.63633 27.8333 14.0003 27.8333C21.3643 27.8333 27.3337 21.864 27.3337 14.5C27.3337 7.13599 21.3643 1.16666 14.0003 1.16666Z" stroke="#27348B" stroke-width="1.2" stroke-linecap="round" stroke-linejoin="round"/>
<path d="M3.69531 22.9613C3.69531 22.9613 6.66731 19.1667 14.0006 19.1667C21.334 19.1667 24.3073 22.9613 24.3073 22.9613M14.0006 14.5C15.0615 14.5 16.0789 14.0786 16.8291 13.3284C17.5792 12.5783 18.0006 11.5609 18.0006 10.5C18.0006 9.43913 17.5792 8.42172 16.8291 7.67157C16.0789 6.92143 15.0615 6.5 14.0006 6.5C12.9398 6.5 11.9224 6.92143 11.1722 7.67157C10.4221 8.42172 10.0006 9.43913 10.0006 10.5C10.0006 11.5609 10.4221 12.5783 11.1722 13.3284C11.9224 14.0786 12.9398 14.5 14.0006 14.5Z" stroke="#27348B" stroke-width="1.2" stroke-linecap="round" stroke-linejoin="round"/>
</svg>
